<?xml version="1.0" standalone="no"?>
<!DOCTYPE svg PUBLIC "-//W3C//DTD SVG 20010904//EN"
 "http://www.w3.org/TR/2001/REC-SVG-20010904/DTD/svg10.dtd">
<svg version="1.0" xmlns="http://www.w3.org/2000/svg"
 width="260.000000pt" height="260.000000pt" viewBox="0 0 260.000000 260.000000"
 preserveAspectRatio="xMidYMid meet">
<metadata>
Created by potrace 1.11, written by Peter Selinger 2001-2013
</metadata>
<g transform="translate(0.000000,260.000000) scale(0.100000,-0.100000)"
fill="#000000" stroke="none">
<path d="M1106 2590 c-190 -30 -436 -132 -581 -242 -248 -187 -416 -440 -492
-745 -25 -99 -28 -124 -28 -303 0 -179 3 -204 28 -303 61 -243 173 -444 342
-612 179 -179 375 -290 622 -352 99 -25 124 -28 303 -28 179 0 204 3 303 28
485 122 842 479 964 964 25 99 28 124 28 303 0 180 -3 204 -28 305 -60 240
-171 438 -342 610 -174 175 -363 284 -605 347 -101 26 -135 30 -285 33 -93 2
-196 0 -229 -5z m344 -672 c25 -6 83 -28 129 -50 120 -57 232 -169 289 -289
50 -106 66 -171 66 -279 0 -108 -16 -173 -66 -279 -57 -120 -169 -232 -289
-289 -106 -50 -171 -66 -279 -66 -108 0 -173 16 -279 66 -120 57 -232 169
-289 289 -50 106 -66 171 -66 279 0 108 16 173 66 279 33 68 57 101 122 167
111 110 210 159 386 188 35 6 156 -3 210 -16z"/>
<path d="M1190 1814 c-280 -60 -464 -339 -406 -614 88 -417 588 -570 887 -271
297 297 146 799 -266 886 -85 18 -130 18 -215 -1z"/>
</g>
</svg>
